<svg width="64" height="24" fill="none" xmlns="http://www.w3.org/2000/svg"><path fill-rule="evenodd" clip-rule="evenodd" d="M62.804 5.705C58.382 8.017 53.83 8.284 48.86 7.393c-4.669-.835-8.565-3.202-12.924-4.72C31.153 1.009 26.23-.29 21.01.058 15.995.39 10.55 1.997 7.136 5.42c-3.333 3.346-4.058 7.747-3.68 12.101 1.447-2.173 3.408-3.17 5.91-4.257 4.81-2.09 10.7-1.826 15.757-.94 4.864.853 9.288 2.881 14.022 4.102l-.008.049c-4.263-.556-8.193-2.133-12.41-2.851-4.62-.786-9.33-1.065-13.878.255-3.917 1.138-7.295 3.247-10.01 5.962A22.477 22.477 0 000 23.347L1.537 24c1.21-1.907 2.67-3.675 4.51-5.133 4.337-3.437 9.81-4.783 15.562-4.7 5.705.083 10.898 2.212 16.432 3.069 5.459.844 11.348 1.152 16.506-1.032 4.852-2.055 7.647-5.276 9.047-9.82.134-.434.292-.872.406-1.313-.385.226-.799.426-1.196.634z" fill="#A9B188"></path></svg>